<svg xmlns="http://www.w3.org/2000/svg" viewBox="0 0 1200 720" font-family="ui-monospace, SFMono-Regular, Menlo, monospace" font-size="13">
  <title>Pen-lift phase — measured p50 / p95 across 20 runs</title>
  <text x="600.0" y="32" text-anchor="middle" font-size="18" font-weight="700" font-family="system-ui, Helvetica, sans-serif">Pen-lift phase — measured timing distribution</text>
  <text x="600.0" y="54" text-anchor="middle" font-size="12" fill="#666" font-family="system-ui, Helvetica, sans-serif">Same stages and brackets as pen-lift-timeline.svg. 20 runs on a Palma 2 Pro. Sub-labels report p50 / p95 in ms.</text>
  <g font-size="11" text-anchor="middle">
    <text x="80" y="105">A. injectStroke</text>
    <text x="80" y="119" fill="#666">called (pen up)</text>
    <text x="200" y="195">B. endStroke</text>
    <text x="200" y="209" fill="#666">entered</text>
    <text x="320" y="105">C. finishTextStroke</text>
    <text x="320" y="119" fill="#666">entered</text>
    <text x="440" y="195">D. scratch_check</text>
    <text x="440" y="209" fill="#666">returned</text>
    <text x="560" y="105">E. shape_snap</text>
    <text x="560" y="119" fill="#666">returned</text>
    <text x="680" y="195">F. classify</text>
    <text x="680" y="209" fill="#666">returned</text>
    <text x="800" y="105">G. observers</text>
    <text x="800" y="119" fill="#666">returned</text>
    <text x="920" y="195">H. endStroke</text>
    <text x="920" y="209" fill="#666">returned</text>
    <text x="1020" y="105">I. append_bitmap</text>
    <text x="1020" y="119" fill="#666">returned</text>
    <text x="1140" y="195">J. waitForIdleSync</text>
    <text x="1140" y="209" fill="#666">returned</text>
  </g>
  <g stroke="#333" stroke-width="1.5">
    <line x1="80" y1="145" x2="80" y2="175"/>
    <line x1="200" y1="145" x2="200" y2="175"/>
    <line x1="320" y1="145" x2="320" y2="175"/>
    <line x1="440" y1="145" x2="440" y2="175"/>
    <line x1="560" y1="145" x2="560" y2="175"/>
    <line x1="680" y1="145" x2="680" y2="175"/>
    <line x1="800" y1="145" x2="800" y2="175"/>
    <line x1="920" y1="145" x2="920" y2="175"/>
    <line x1="1020" y1="145" x2="1020" y2="175"/>
    <line x1="1140" y1="145" x2="1140" y2="175"/>
  </g>
  <line x1="20" y1="160" x2="1180" y2="160" stroke="#333" stroke-width="2"/>
  <g stroke="#c0392b" stroke-width="3" fill="none">
    <line x1="80" y1="245" x2="1140" y2="245"/>
    <line x1="80" y1="238" x2="80" y2="252"/>
    <line x1="1140" y1="238" x2="1140" y2="252"/>
  </g>
  <text x="610.0" y="263" text-anchor="middle" fill="#c0392b" font-size="12" font-weight="700">total — 102/433 ms (p50/p95)</text>
  <text x="610.0" y="277" text-anchor="middle" fill="#666" font-size="10">(budget = 50 ms; test fails when total ≥ 50 ms)</text>
  <g stroke="#1e6dc6" stroke-width="1.5" fill="none">
    <line x1="80" y1="325" x2="110" y2="325"/>
    <line x1="80" y1="318" x2="80" y2="332"/>
    <line x1="110" y1="318" x2="110" y2="332"/>
  </g>
  <text x="95.0" y="297" text-anchor="middle" fill="#1e6dc6" font-size="12" font-weight="400">begin</text>
  <g stroke="#1e6dc6" stroke-width="1.5" fill="none">
    <line x1="115" y1="325" x2="200" y2="325"/>
    <line x1="115" y1="318" x2="115" y2="332"/>
    <line x1="200" y1="318" x2="200" y2="332"/>
  </g>
  <text x="157.5" y="297" text-anchor="middle" fill="#1e6dc6" font-size="12" font-weight="400">add_points</text>
  <g stroke="#1e6dc6" stroke-width="3" fill="none">
    <line x1="200" y1="325" x2="920" y2="325"/>
    <line x1="200" y1="318" x2="200" y2="332"/>
    <line x1="920" y1="318" x2="920" y2="332"/>
  </g>
  <text x="560.0" y="343" text-anchor="middle" fill="#1e6dc6" font-size="12" font-weight="700">end</text>
  <text x="560.0" y="357" text-anchor="middle" fill="#666" font-size="10">69/145 ms</text>
  <g stroke="#1e6dc6" stroke-width="1.5" fill="none">
    <line x1="920" y1="325" x2="1020" y2="325"/>
    <line x1="920" y1="318" x2="920" y2="332"/>
    <line x1="1020" y1="318" x2="1020" y2="332"/>
  </g>
  <text x="970.0" y="343" text-anchor="middle" fill="#1e6dc6" font-size="12" font-weight="400">append_bitmap</text>
  <text x="970.0" y="357" text-anchor="middle" fill="#666" font-size="10">≤1 ms</text>
  <g stroke="#3498db" stroke-width="1.5" fill="none">
    <line x1="320" y1="410" x2="440" y2="410"/>
    <line x1="320" y1="403" x2="320" y2="417"/>
    <line x1="440" y1="403" x2="440" y2="417"/>
  </g>
  <text x="380.0" y="428" text-anchor="middle" fill="#3498db" font-size="12" font-weight="400">scratch_check</text>
  <text x="380.0" y="442" text-anchor="middle" fill="#666" font-size="10">31/95 ms</text>
  <g stroke="#3498db" stroke-width="1.5" fill="none">
    <line x1="440" y1="410" x2="560" y2="410"/>
    <line x1="440" y1="403" x2="440" y2="417"/>
    <line x1="560" y1="403" x2="560" y2="417"/>
  </g>
  <text x="500.0" y="428" text-anchor="middle" fill="#3498db" font-size="12" font-weight="400">shape_snap</text>
  <text x="500.0" y="442" text-anchor="middle" fill="#666" font-size="10">≤1 ms</text>
  <g stroke="#3498db" stroke-width="1.5" fill="none">
    <line x1="560" y1="410" x2="680" y2="410"/>
    <line x1="560" y1="403" x2="560" y2="417"/>
    <line x1="680" y1="403" x2="680" y2="417"/>
  </g>
  <text x="620.0" y="428" text-anchor="middle" fill="#3498db" font-size="12" font-weight="400">classify</text>
  <text x="620.0" y="442" text-anchor="middle" fill="#666" font-size="10">0/3 ms</text>
  <g stroke="#3498db" stroke-width="1.5" fill="none">
    <line x1="680" y1="410" x2="800" y2="410"/>
    <line x1="680" y1="403" x2="680" y2="417"/>
    <line x1="800" y1="403" x2="800" y2="417"/>
  </g>
  <text x="740.0" y="428" text-anchor="middle" fill="#3498db" font-size="12" font-weight="400">observers</text>
  <text x="740.0" y="442" text-anchor="middle" fill="#666" font-size="10">32/47 ms</text>
  <rect x="1020" y="490" width="120" height="12" fill="#000" fill-opacity="0.06"/>
  <g stroke="#e67e22" stroke-width="1.5" fill="none">
    <line x1="1020" y1="495" x2="1140" y2="495"/>
    <line x1="1020" y1="488" x2="1020" y2="502"/>
    <line x1="1140" y1="488" x2="1140" y2="502"/>
  </g>
  <text x="1080.0" y="513" text-anchor="middle" fill="#e67e22" font-size="12" font-weight="400">drain</text>
  <text x="1080.0" y="527" text-anchor="middle" fill="#666" font-size="10">33/293 ms</text>
  <rect x="40" y="555" width="1120" height="115" fill="#fff5f1" stroke="#f4caaa"/>
  <text x="55" y="577" font-size="13" font-weight="700" fill="#c0392b">Findings</text>
  <text x="55" y="599" font-size="12" fill="#333"><tspan font-weight="700">Where the time goes (p50 = 102 ms):</tspan> dominant cost is inside <tspan fill="#1e6dc6" font-weight="700">end</tspan> (69 ms p50), driven by <tspan fill="#3498db" font-weight="700">scratch_check</tspan> (31 ms) + <tspan fill="#3498db" font-weight="700">observers</tspan> (32 ms).</text>
  <text x="55" y="617" font-size="12" fill="#333"><tspan font-weight="700">Where variance arises (p50 → p95):</tspan> <tspan fill="#3498db" font-weight="700">scratch_check</tspan> swings 19–95 ms (5×) and <tspan fill="#e67e22" font-weight="700">drain</tspan> swings 22–293 ms (13×).</text>
  <text x="55" y="635" font-size="12" fill="#333"><tspan font-weight="700">begin · add_points · shape_snap · classify · append_bitmap</tspan> each measure ≤ 3 ms even at p95 — sub-labels suppressed for the two narrow brackets.</text>
  <text x="55" y="657" font-size="11" fill="#666" font-style="italic">Sub-labels show p50/p95 in ms (compact form to fit narrow brackets without colliding).</text>
</svg>
